# xmcd
#
# Track frame offsets: 
#        179
#        9663
#        22298
#        43514
#        56719
#        70154
#        79856
#        89511
#        101530
#        114578
#        122611
#
# Disc length: 1819 seconds
#
# Revision: 2
# Processed by: cddbd v1.5.2PL0 Copyright (c) Steve Scherf et al.
# Submitted via: ExactAudioCopyFreeDBPlugin 1.0
#
DISCID=9107190b
DTITLE=JOHNNY CASH - 1966 - Johnny Cash - Everybody Loves A Nut
DYEAR=1966
DGENRE=Country
TTITLE0=Everybody loves a nut
TTITLE1=The one on the right is on the left
TTITLE2=A cup of coffee
TTITLE3=The bug that tried to crawl around the world
TTITLE4=The singing star's queen
TTITLE5=Austin prison
TTITLE6=Dirty old egg-sucking dog
TTITLE7=Take me home
TTITLE8=Please don't play 'Red river valley'
TTITLE9=Boa constrictor
TTITLE10=Joe Bean
EXTD=
EXTT0=
EXTT1=
EXTT2=
EXTT3=
EXTT4=
EXTT5=
EXTT6=
EXTT7=
EXTT8=
EXTT9=
EXTT10=
PLAYORDER=
